<svg width="27" height="26" viewBox="0 0 27 26" fill="none" xmlns="http://www.w3.org/2000/svg">
<path d="M22.95 1.55518H4.04998C2.56498 1.55518 1.34998 2.71078 1.34998 4.12318V22.0992C1.34998 23.5129 2.56498 24.6672 4.04998 24.6672H13.5V15.6792H10.8V12.5013H13.5V9.86908C13.5 7.0905 15.1362 5.13882 18.5841 5.13882L21.0181 5.14139V8.48621H19.4022C18.0603 8.48621 17.55 9.44407 17.55 10.3326V12.5026H21.0168L20.25 15.6792H17.55V24.6672H22.95C24.435 24.6672 25.65 23.5129 25.65 22.0992V4.12318C25.65 2.71078 24.435 1.55518 22.95 1.55518Z" fill="#3F4E4F"/>
</svg>
