<svg width="27" height="30" viewBox="0 0 27 30" fill="none" xmlns="http://www.w3.org/2000/svg">
<g clip-path="url(#clip0_378_463)">
<path d="M3.85714 1.83447C1.72969 1.83447 0 3.4796 0 5.50304V23.8459C0 25.8693 1.72969 27.5145 3.85714 27.5145H23.1429C25.2703 27.5145 27 25.8693 27 23.8459V5.50304C27 3.4796 25.2703 1.83447 23.1429 1.83447H3.85714ZM21.1721 11.4243C21.1721 16.3941 17.1944 22.1205 9.92612 22.1205C7.68415 22.1205 5.60491 21.5015 3.85714 20.4353C4.17656 20.4697 4.48393 20.4811 4.80938 20.4811C6.6596 20.4811 8.35915 19.885 9.71518 18.8761C7.97946 18.8417 6.52098 17.7584 6.02076 16.268C6.62946 16.354 7.1779 16.354 7.80469 16.1992C5.99665 15.8496 4.64062 14.3363 4.64062 12.5077V12.4619C5.16496 12.7427 5.77969 12.9147 6.42455 12.9376C5.88214 12.5937 5.43616 12.1294 5.12879 11.5848C4.82143 11.0403 4.65871 10.427 4.66473 9.80788C4.66473 9.10856 4.85759 8.46656 5.20112 7.91054C7.14777 10.1919 10.0708 11.6823 13.3493 11.8428C12.7888 9.29199 14.7958 7.22269 17.2065 7.22269C18.3455 7.22269 19.3701 7.67553 20.0933 8.40924C20.9853 8.24874 21.8411 7.93347 22.6004 7.50356C22.3051 8.37485 21.6844 9.10856 20.8647 9.57287C21.6603 9.49262 22.4317 9.28053 23.1429 8.98819C22.6065 9.7391 21.9315 10.404 21.16 10.9371C21.1721 11.0976 21.1721 11.2638 21.1721 11.4243Z" fill="#3F4E4F"/>
</g>
<defs>
<clipPath id="clip0_378_463">
<rect width="27" height="29.3486" fill="white"/>
</clipPath>
</defs>
</svg>
