<svg width="27" height="26" viewBox="0 0 27 26" fill="none" xmlns="http://www.w3.org/2000/svg">
<path d="M22.95 1.55499H4.04998C2.56498 1.55499 1.34998 2.71059 1.34998 4.12299V22.099C1.34998 23.5127 2.56498 24.667 4.04998 24.667H13.5V15.679H10.8V12.5011H13.5V9.86889C13.5 7.09032 15.1362 5.13864 18.5841 5.13864L21.0181 5.1412V8.48602H19.4022C18.0603 8.48602 17.55 9.44389 17.55 10.3324V12.5024H21.0168L20.25 15.679H17.55V24.667H22.95C24.435 24.667 25.65 23.5127 25.65 22.099V4.12299C25.65 2.71059 24.435 1.55499 22.95 1.55499Z" fill="#3F4E4F"/>
</svg>
