<svg width="27" height="30" viewBox="0 0 27 30" fill="none" xmlns="http://www.w3.org/2000/svg">
<g clip-path="url(#clip0_378_339)">
<path d="M3.85714 1.83429C1.72969 1.83429 0 3.47941 0 5.50286V23.8457C0 25.8692 1.72969 27.5143 3.85714 27.5143H23.1429C25.2703 27.5143 27 25.8692 27 23.8457V5.50286C27 3.47941 25.2703 1.83429 23.1429 1.83429H3.85714ZM21.1721 11.4242C21.1721 16.3939 17.1944 22.1203 9.92612 22.1203C7.68415 22.1203 5.60491 21.5013 3.85714 20.4351C4.17656 20.4695 4.48393 20.4809 4.80938 20.4809C6.6596 20.4809 8.35915 19.8848 9.71518 18.8759C7.97946 18.8416 6.52098 17.7582 6.02076 16.2678C6.62946 16.3538 7.1779 16.3538 7.80469 16.199C5.99665 15.8494 4.64062 14.3361 4.64062 12.5075V12.4617C5.16496 12.7426 5.77969 12.9145 6.42455 12.9375C5.88214 12.5935 5.43616 12.1292 5.12879 11.5847C4.82143 11.0401 4.65871 10.4268 4.66473 9.8077C4.66473 9.10838 4.85759 8.46638 5.20112 7.91036C7.14777 10.1918 10.0708 11.6821 13.3493 11.8426C12.7888 9.29181 14.7958 7.2225 17.2065 7.2225C18.3455 7.2225 19.3701 7.67534 20.0933 8.40906C20.9853 8.24856 21.8411 7.93329 22.6004 7.50338C22.3051 8.37466 21.6844 9.10838 20.8647 9.57268C21.6603 9.49243 22.4317 9.28034 23.1429 8.988C22.6065 9.73891 21.9315 10.4038 21.16 10.9369C21.1721 11.0974 21.1721 11.2637 21.1721 11.4242Z" fill="#3F4E4F"/>
</g>
<defs>
<clipPath id="clip0_378_339">
<rect width="27" height="29.3486" fill="white"/>
</clipPath>
</defs>
</svg>
