<svg width="27" height="26" viewBox="0 0 27 26" fill="none" xmlns="http://www.w3.org/2000/svg">
<path d="M22.95 1.55493H4.04998C2.56498 1.55493 1.34998 2.71053 1.34998 4.12293V22.0989C1.34998 23.5126 2.56498 24.6669 4.04998 24.6669H13.5V15.6789H10.8V12.501H13.5V9.86883C13.5 7.09026 15.1362 5.13858 18.5841 5.13858L21.0181 5.14114V8.48596H19.4022C18.0603 8.48596 17.55 9.44383 17.55 10.3324V12.5023H21.0168L20.25 15.6789H17.55V24.6669H22.95C24.435 24.6669 25.65 23.5126 25.65 22.0989V4.12293C25.65 2.71053 24.435 1.55493 22.95 1.55493Z" fill="#3F4E4F"/>
</svg>
