<svg width="27" height="30" viewBox="0 0 27 30" fill="none" xmlns="http://www.w3.org/2000/svg">
<g clip-path="url(#clip0_383_185)">
<path d="M3.85714 1.83423C1.72969 1.83423 0 3.47935 0 5.5028V23.8457C0 25.8691 1.72969 27.5142 3.85714 27.5142H23.1429C25.2703 27.5142 27 25.8691 27 23.8457V5.5028C27 3.47935 25.2703 1.83423 23.1429 1.83423H3.85714ZM21.1721 11.4241C21.1721 16.3939 17.1944 22.1203 9.92612 22.1203C7.68415 22.1203 5.60491 21.5012 3.85714 20.435C4.17656 20.4694 4.48393 20.4809 4.80938 20.4809C6.6596 20.4809 8.35915 19.8847 9.71518 18.8759C7.97946 18.8415 6.52098 17.7581 6.02076 16.2678C6.62946 16.3537 7.1779 16.3537 7.80469 16.199C5.99665 15.8493 4.64062 14.336 4.64062 12.5075V12.4616C5.16496 12.7425 5.77969 12.9145 6.42455 12.9374C5.88214 12.5935 5.43616 12.1292 5.12879 11.5846C4.82143 11.0401 4.65871 10.4267 4.66473 9.80764C4.66473 9.10832 4.85759 8.46632 5.20112 7.9103C7.14777 10.1917 10.0708 11.6821 13.3493 11.8426C12.7888 9.29175 14.7958 7.22244 17.2065 7.22244C18.3455 7.22244 19.3701 7.67528 20.0933 8.409C20.9853 8.2485 21.8411 7.93323 22.6004 7.50332C22.3051 8.3746 21.6844 9.10832 20.8647 9.57262C21.6603 9.49237 22.4317 9.28028 23.1429 8.98794C22.6065 9.73885 21.9315 10.4038 21.16 10.9369C21.1721 11.0974 21.1721 11.2636 21.1721 11.4241Z" fill="#3F4E4F"/>
</g>
<defs>
<clipPath id="clip0_383_185">
<rect width="27" height="29.3486" fill="white"/>
</clipPath>
</defs>
</svg>
